HIERARCHY
ROOT Hips
{
	OFFSET 0.00000 0.00000 0.00000
	CHANNELS 6 Xposition Yposition Zposition Yrotation Zrotation Xrotation 
	JOINT Lumbar
	{
		OFFSET 0 0 0
		CHANNELS 3 Zrotation Xrotation Yrotation
		JOINT Neck
		{
			OFFSET 0.00 0.2701 0.00
			CHANNELS 3 Zrotation Xrotation Yrotation
			End Site
			{
				OFFSET 0.00 0.1379 0.00
			}
		}
		JOINT RightShoulder
		{
			OFFSET 0.0119 0.2289 0.1181
			CHANNELS 3 Zrotation Xrotation Yrotation
			JOINT RightElbow
			{
				OFFSET 0.00 -0.1475 0.00
				CHANNELS 2 Zrotation Yrotation
				JOINT RightWrist
				{
					OFFSET 0.00 -0.1605 0.00
					CHANNELS 2 Zrotation Xrotation
					End Site
					{
						OFFSET 0.0040 -0.1068 0.0006
					}
				}
			}
		}
		JOINT LeftShoulder
		{
			OFFSET 0.0119 0.2289 -0.1181
			CHANNELS 3 Zrotation Xrotation Yrotation
			JOINT LeftElbow
			{
				OFFSET 0.00 -0.1475 0.00
				CHANNELS 2 Zrotation Yrotation
				JOINT LeftWrist
				{
					OFFSET 0.00 -0.1605 0.00
					CHANNELS 2 Zrotation Xrotation
					End Site
					{
						OFFSET 0.0040 -0.1068 -0.0006
					}
				}
			}
		}
	}
	JOINT RightHip
	{
		OFFSET 0.0316 -0.0424 0.0458
		CHANNELS 3 Zrotation Xrotation Yrotation
		JOINT RightKnee
		{
			OFFSET 0.00 -0.2438 0.00
			CHANNELS 1 Zrotation
			JOINT RightAnkle
			{
				OFFSET 0.00 -0.2449 0.00
				CHANNELS 3 Zrotation Xrotation Yrotation
				End Site
				{
					OFFSET 0.1237 -0.0542 0.0051
				}
			}
		}
	}
	JOINT LeftHip
	{
		OFFSET 0.0316 -0.0424 -0.0458
		CHANNELS 3 Zrotation Xrotation Yrotation
		JOINT LeftKnee
		{
			OFFSET 0.00 -0.2438 0.00
			CHANNELS 1 Zrotation
			JOINT LeftAnkle
			{
				OFFSET 0.00 -0.2449 0.00
				CHANNELS 3 Zrotation Xrotation Yrotation
				End Site
				{
					OFFSET 0.1237 -0.0542 -0.0051
				}
			}
		}
	}
}
MOTION
Frames: 11
Frame Time: 0.02
0 0.57926 0 175.01874 0 -4.91559 5.36553 5.67138 2.06323 -26.35051 -0.45538 0.85735 1.55294 -66.59342 -90.0116 22.45491 69.72706 -25.24705 -1.88942 29.41455 73.44495 63.61486 17.46461 -86.97271 -23.8058 4.75956 -1.40225 6.55752 3.02543 -7.13319 -1.28323 -4.26111 -8.87032 -4.14626 4.42102 9.25326 -7.39026 7.46674 7.37334 11.1188
-0.00025 0.57926 -9e-05 175.14433 0 -4.91486 5.38049 5.64785 2.02794 -26.60293 -0.38621 0.89827 1.24791 -66.71034 -90.01161 22.38149 69.219 -25.40523 -1.89848 29.44175 73.27856 63.90197 17.43545 -87.34102 -23.83778 4.7595 -1.44603 6.56348 2.89944 -7.12498 -1.26442 -4.2484 -8.84646 -4.16719 4.43021 9.09802 -7.3661 7.4483 7.38428 11.18295
-0.0005 0.57926 -0.00017 175.26976 0 -4.9141 5.39536 5.62432 1.99264 -26.85453 -0.31726 0.93902 0.9442 -66.82685 -90.01161 22.3083 68.71328 -25.56305 -1.90701 29.46793 73.11274 64.18727 17.40705 -87.70499 -23.86909 4.75914 -1.48969 6.56944 2.77393 -7.11681 -1.24564 -4.23583 -8.823 -4.18797 4.4394 8.94323 -7.34211 7.42998 7.39507 11.24662
-0.00075 0.57925 -0.00026 175.39561 0 -4.91326 5.41 5.60062 1.9568 -27.10485 -0.24855 0.97959 0.64293 -66.94305 -90.01161 22.23517 68.2126 -25.72167 -1.91338 29.49021 72.94754 64.46807 17.38147 -88.05525 -23.89795 4.75751 -1.53326 6.57544 2.64952 -7.10868 -1.22689 -4.22379 -8.80116 -4.20838 4.44859 8.78853 -7.3185 7.41186 7.40536 11.3093
-0.00101 0.57925 -0.00035 175.51904 0 -4.9129 5.4258 5.57791 1.92363 -27.36137 -0.17856 1.0212 0.32887 -67.06112 -90.01162 22.16155 67.68598 -25.87689 -1.93104 29.53301 72.77905 64.77266 17.34104 -88.47815 -23.93965 4.7625 -1.57726 6.5812 2.5198 -7.10028 -1.20811 -4.20904 -8.77105 -4.23077 4.45767 8.63313 -7.29282 7.39255 7.41828 11.37761
-0.00125 0.57925 -0.00043 175.64761 0 -4.9115 5.43916 5.55306 1.885 -27.6049 -0.11137 1.06053 0.04207 -67.17497 -90.01162 22.08913 67.21424 -26.03858 -1.92491 29.53244 72.61767 65.02664 17.33198 -88.74699 -23.95424 4.75356 -1.62033 6.58745 2.40109 -7.09252 -1.1893 -4.19999 -8.75825 -4.24896 4.46702 8.47951 -7.27155 7.37587 7.42565 11.43366
-0.00146 0.57924 -0.00052 175.79334 0 -4.90728 5.44566 5.52192 1.82834 -27.81512 -0.05017 1.09467 -0.17322 -67.28115 -90.01159 22.0173 66.89091 -26.22811 -1.8496 29.40732 72.4721 65.14261 17.41311 -88.58226 -23.89095 4.70402 -1.66164 6.5954 2.31359 -7.08584 -1.17088 -4.20755 -8.79644 -4.25545 4.47719 8.32531 -7.26215 7.36562 7.41703 11.45861
-0.00165 0.57924 -0.0006 175.94386 0 -4.902 5.44975 5.48865 1.7666 -28.01206 0.00796 1.12638 -0.36024 -67.38248 -90.01156 21.94711 66.62343 -26.42255 -1.75085 29.23926 72.3342 65.20732 17.52536 -88.26342 -23.80078 4.64077 -1.7019 6.60381 2.23701 -7.0799 -1.15232 -4.22075 -8.85158 -4.25773 4.48765 8.17371 -7.25723 7.35818 7.40291 11.47074
-0.00186 0.57923 -0.00068 176.09049 0 -4.89716 5.45501 5.45655 1.70908 -28.21363 0.06643 1.15848 -0.55838 -67.48356 -90.01153 21.87784 66.33176 -26.60851 -1.665 29.09368 72.19517 65.29442 17.62116 -88.01997 -23.72479 4.5851 -1.74216 6.61181 2.15473 -7.07406 -1.13346 -4.23081 -8.89692 -4.26204 4.49797 8.0243 -7.25044 7.35001 7.39173 11.48692
-0.00206 0.57923 -0.00076 176.24444 0 -4.89248 5.45984 5.42362 1.64366 -28.42087 0.12933 1.19344 -0.76497 -67.5949 -90.01149 21.80151 66.0342 -26.82085 -1.56966 28.93521 72.04645 65.38515 17.72667 -87.75343 -23.64049 4.52367 -1.78442 6.62063 2.07533 -7.06644 -1.11607 -4.24322 -8.95103 -4.26587 4.50833 7.86075 -7.24297 7.33958 7.37875 11.51045
-0.00226 0.57922 -0.00084 176.38415 0 -4.88724 5.46512 5.39188 1.59329 -28.61343 0.18228 1.22206 -0.94573 -67.68379 -90.01147 21.74031 65.76331 -26.97938 -1.48852 28.79386 71.91946 65.45639 17.81939 -87.49903 -23.56713 4.47107 -1.82225 6.62788 1.99282 -7.06264 -1.09569 -4.25217 -8.99101 -4.26969 4.51866 7.72717 -7.23796 7.33447 7.36816 11.51582
